<svg width="165" height="34" viewBox="0 0 165 34" fill="none" xmlns="http://www.w3.org/2000/svg">
<path d="M0 6.16882H11.8072V8.55412H2.81465V15.8293H11.1155V18.1907H2.81465V28.1135H0V6.16882Z" fill="#0067DB"/>
<path d="M15.6476 20.7668C15.7191 24.631 18.176 26.2291 21.0383 26.2291C23.0897 26.2291 24.33 25.8713 25.4034 25.4181L25.9043 27.4695C24.9025 27.9227 23.1613 28.4713 20.6805 28.4713C15.8384 28.4713 12.9283 25.2511 12.9283 20.5044C12.9283 15.7577 15.743 12.0128 20.3228 12.0128C25.4511 12.0128 26.8346 16.5448 26.8346 19.431C26.8346 20.0273 26.763 20.4805 26.7392 20.7668H15.6476ZM24.0438 18.6916C24.0677 16.8788 23.2805 14.0403 20.0604 14.0403C17.1742 14.0403 15.8861 16.7118 15.6714 18.6916H24.0438Z" fill="#0067DB"/>
<path d="M33.3464 28.1135L27.7887 6.19268H30.7703L33.3703 17.2843C34.0143 20.0274 34.6106 22.7466 34.9923 24.8695H35.0638C35.4216 22.6989 36.1134 20.0751 36.8528 17.2604L39.7867 6.19268H42.7445L45.416 17.3081C46.0362 19.9081 46.6087 22.5081 46.9426 24.8218H47.0142C47.4674 22.4127 48.0875 19.9797 48.7793 17.2366L51.6655 6.16882H54.5517L48.3499 28.0897H45.3922L42.6252 16.6641C41.9335 13.8733 41.4803 11.7266 41.194 9.50823H41.1225C40.7408 11.6789 40.2399 13.8256 39.4289 16.6641L36.3042 28.0897H33.3464V28.1135Z" fill="#0067DB"/>
<path d="M69.6744 20.099C69.6744 25.9191 65.6432 28.4713 61.8268 28.4713C57.5571 28.4713 54.2892 25.3466 54.2892 20.3613C54.2892 15.0898 57.7241 11.989 62.0892 11.989C66.6212 11.989 69.6744 15.2807 69.6744 20.099ZM57.1993 20.2659C57.1993 23.7246 59.1791 26.3246 61.9937 26.3246C64.7368 26.3246 66.7643 23.7485 66.7643 20.2182C66.7643 17.5467 65.4286 14.1596 62.0414 14.1596C58.6543 14.1596 57.1993 17.2605 57.1993 20.2659Z" fill="#0067DB"/>
<path d="M75.5899 18.2383H71.7019V20.3613H75.5899V18.2383Z" fill="#0067DB"/>
<path d="M92.4301 5V24.0346C92.4301 25.442 92.454 27.0401 92.5494 28.0896H89.9733L89.8302 25.3466H89.7586C88.8761 27.1117 86.9678 28.4474 84.3917 28.4474C80.5752 28.4474 77.665 25.2273 77.665 20.4328C77.6413 15.1852 80.8853 11.9651 84.7256 11.9651C87.1348 11.9651 88.7568 13.11 89.4724 14.3742H89.5439V5H92.4301ZM89.5678 18.7631C89.5678 18.4053 89.5439 17.9283 89.4485 17.5705C89.0192 15.7577 87.4687 14.2549 85.322 14.2549C82.3642 14.2549 80.5991 16.8549 80.5991 20.3374C80.5991 23.5099 82.1495 26.1576 85.2504 26.1576C87.1586 26.1576 88.9238 24.8933 89.4485 22.7466C89.5439 22.3649 89.5678 21.9833 89.5678 21.5062V18.7631Z" fill="#0067DB"/>
<path d="M99.7053 7.93393C99.7291 8.9119 99.0135 9.67519 97.8925 9.67519C96.8906 9.67519 96.175 8.88805 96.175 7.93393C96.175 6.93211 96.9145 6.14496 97.964 6.14496C99.0135 6.14496 99.7053 6.93211 99.7053 7.93393ZM96.509 12.3706H99.3713V28.1135H96.509V12.3706Z" fill="#0067DB"/>
<path d="M103.426 17.2604C103.426 15.3999 103.403 13.8256 103.307 12.3467H105.812L105.907 15.4238H106.05C106.766 13.3009 108.483 11.9651 110.415 11.9651C110.749 11.9651 110.964 11.9889 111.226 12.0605V14.7559C110.94 14.6843 110.654 14.6605 110.248 14.6605C108.245 14.6605 106.79 16.1871 106.408 18.3338C106.336 18.7155 106.289 19.1925 106.289 19.6696V28.0658H103.45V17.2604H103.426Z" fill="#0067DB"/>
<path d="M114.661 20.7668C114.733 24.631 117.19 26.2291 120.052 26.2291C122.103 26.2291 123.344 25.8713 124.417 25.4181L124.894 27.4695C123.892 27.9227 122.151 28.4713 119.646 28.4713C114.804 28.4713 111.894 25.2511 111.894 20.5044C111.894 15.7577 114.685 12.0128 119.289 12.0128C124.417 12.0128 125.8 16.5448 125.8 19.431C125.8 20.0273 125.729 20.4805 125.705 20.7668H114.661ZM123.057 18.6916C123.081 16.8788 122.318 14.0403 119.098 14.0403C116.212 14.0403 114.923 16.7118 114.709 18.6916H123.057Z" fill="#0067DB"/>
<path d="M131.525 19.5741H131.597C131.978 19.0255 132.527 18.3338 133.004 17.7852L137.631 12.3467H141.09L135.008 18.8108L141.925 28.0896H138.442L133.004 20.5521L131.549 22.1741V28.0896H128.71V5H131.525V19.5741Z" fill="#0067DB"/>
<path d="M146.719 8.57794V12.3706H150.822V14.5412H146.719V23.0328C146.719 24.9888 147.268 26.086 148.866 26.086C149.653 26.086 150.106 26.0144 150.536 25.8952L150.679 28.0419C150.13 28.2805 149.248 28.4713 148.151 28.4713C146.815 28.4713 145.741 28.0181 145.073 27.2309C144.262 26.3722 143.952 24.9888 143.952 23.1282V14.5412H141.519V12.3706H143.952V9.4605L146.719 8.57794Z" fill="#0067DB"/>
<path d="M154.996 8.17242C156.094 8.17242 156.928 9.00728 156.928 10.0568C156.928 11.1302 156.094 11.965 154.996 11.965C153.899 11.965 153.04 11.1302 153.04 10.0568C153.04 9.03113 153.899 8.17242 154.996 8.17242ZM154.972 8.55407C154.138 8.55407 153.517 9.24581 153.517 10.0568C153.517 10.8917 154.138 11.5595 154.996 11.5595C155.831 11.5595 156.451 10.8917 156.451 10.0568C156.428 9.24581 155.831 8.55407 154.972 8.55407ZM154.686 11.0586H154.257V9.17425C154.424 9.15039 154.662 9.10269 154.972 9.10269C155.33 9.10269 155.497 9.15039 155.64 9.24581C155.736 9.31737 155.831 9.48434 155.831 9.65131C155.831 9.86598 155.664 10.033 155.45 10.1045V10.1284C155.64 10.1761 155.736 10.343 155.807 10.5816C155.855 10.8678 155.903 10.9871 155.95 11.0348H155.473C155.426 10.9632 155.378 10.7962 155.33 10.5816C155.306 10.3669 155.187 10.2715 154.949 10.2715H154.734V11.0586H154.686ZM154.686 9.98525H154.901C155.139 9.98525 155.33 9.91369 155.33 9.69901C155.33 9.53204 155.211 9.41278 154.925 9.41278C154.806 9.41278 154.734 9.43663 154.686 9.43663V9.98525Z" fill="#0067DB"/>
</svg>
