<svg width="245" height="80" viewBox="0 0 245 80" fill="none" xmlns="http://www.w3.org/2000/svg">
<path d="M0 23.8248H18.4337V27.5487H4.39429V38.9068H17.3537V42.5936H4.39429V58.0853H0V23.8248Z" fill="white"/>
<path d="M24.4293 46.6155C24.541 52.6483 28.3767 55.1433 32.8455 55.1433C36.0481 55.1433 37.9845 54.5848 39.6603 53.8772L40.4424 57.0798C38.8783 57.7874 36.1598 58.6439 32.2869 58.6439C24.7272 58.6439 20.184 53.6165 20.184 46.2058C20.184 38.7951 24.5782 32.9485 31.7283 32.9485C39.7348 32.9485 41.8947 40.024 41.8947 44.53C41.8947 45.461 41.783 46.1686 41.7457 46.6155H24.4293ZM37.5377 43.3756C37.5749 40.5454 36.346 36.1139 31.3186 36.1139C26.8126 36.1139 24.8017 40.2847 24.4665 43.3756H37.5377Z" fill="white"/>
<path d="M52.0611 58.0853L43.3843 23.862H48.0392L52.0984 41.1785C53.1038 45.461 54.0348 49.7064 54.6307 53.0207H54.7424C55.301 49.6319 56.3809 45.5355 57.5354 41.1412L62.1158 23.862H66.7336L70.9044 41.2157C71.8726 45.2748 72.7664 49.334 73.2878 52.9462H73.3995C74.107 49.185 75.0753 45.3866 76.1552 41.104L80.6612 23.8248H85.1672L75.4849 58.0481H70.8672L66.5474 40.2102C65.4674 35.8532 64.7599 32.5016 64.313 29.0383H64.2013C63.6054 32.4271 62.8234 35.7787 61.5573 40.2102L56.6788 58.0481H52.0611V58.0853Z" fill="white"/>
<path d="M108.777 45.5728C108.777 54.6592 102.484 58.6439 96.5253 58.6439C89.8594 58.6439 84.7576 53.7655 84.7576 45.9824C84.7576 37.7524 90.1201 32.9113 96.935 32.9113C104.01 32.9113 108.777 38.0503 108.777 45.5728ZM89.3008 45.8334C89.3008 51.2332 92.3917 55.2923 96.786 55.2923C101.069 55.2923 104.234 51.2704 104.234 45.759C104.234 41.5881 102.149 36.3001 96.8605 36.3001C91.5724 36.3001 89.3008 41.1412 89.3008 45.8334Z" fill="white"/>
<path d="M118.013 42.668H111.943V45.9824H118.013V42.668Z" fill="white"/>
<path d="M144.304 22V51.7173C144.304 53.9144 144.341 56.4095 144.49 58.048H140.468L140.245 53.7655H140.133C138.755 56.5212 135.776 58.6066 131.754 58.6066C125.796 58.6066 121.252 53.5793 121.252 46.0941C121.215 37.9014 126.28 32.874 132.275 32.874C136.037 32.874 138.569 34.6615 139.686 36.6352H139.798V22H144.304ZM139.835 43.4873C139.835 42.9287 139.798 42.1839 139.649 41.6253C138.979 38.7951 136.558 36.449 133.206 36.449C128.589 36.449 125.833 40.5081 125.833 45.9451C125.833 50.898 128.254 55.0316 133.095 55.0316C136.074 55.0316 138.83 53.0579 139.649 49.7063C139.798 49.1105 139.835 48.5147 139.835 47.7699V43.4873Z" fill="white"/>
<path d="M155.662 26.5805C155.699 28.1073 154.582 29.299 152.832 29.299C151.268 29.299 150.151 28.0701 150.151 26.5805C150.151 25.0164 151.305 23.7875 152.943 23.7875C154.582 23.7875 155.662 25.0164 155.662 26.5805ZM150.672 33.5071H155.141V58.0853H150.672V33.5071Z" fill="white"/>
<path d="M161.471 41.1412C161.471 38.2365 161.434 35.7787 161.285 33.4698H165.195L165.344 38.2737H165.568C166.685 34.9594 169.366 32.874 172.383 32.874C172.904 32.874 173.239 32.9112 173.649 33.0229V37.231C173.202 37.1193 172.755 37.082 172.122 37.082C168.994 37.082 166.722 39.4654 166.126 42.817C166.015 43.4128 165.94 44.1576 165.94 44.9024V58.0108H161.509V41.1412H161.471Z" fill="white"/>
<path d="M179.011 46.6155C179.123 52.6483 182.959 55.1433 187.428 55.1433C190.63 55.1433 192.567 54.5848 194.242 53.8772L194.987 57.0798C193.423 57.7874 190.705 58.6439 186.794 58.6439C179.235 58.6439 174.692 53.6165 174.692 46.2058C174.692 38.7951 179.049 32.9485 186.236 32.9485C194.242 32.9485 196.402 40.024 196.402 44.53C196.402 45.461 196.291 46.1686 196.253 46.6155H179.011ZM192.12 43.3756C192.157 40.5454 190.965 36.1139 185.938 36.1139C181.432 36.1139 179.421 40.2847 179.086 43.3756H192.12Z" fill="white"/>
<path d="M205.34 44.7535H205.451C206.047 43.8969 206.904 42.817 207.649 41.9605L214.873 33.4698H220.273L210.777 43.5618L221.576 58.048H216.139L207.649 46.2803L205.377 48.8126V58.048H200.945V22H205.34V44.7535Z" fill="white"/>
<path d="M229.061 27.586V33.5071H235.467V36.8959H229.061V50.1533C229.061 53.2069 229.918 54.9199 232.413 54.9199C233.642 54.9199 234.35 54.8082 235.02 54.622L235.243 57.9736C234.387 58.346 233.009 58.6439 231.296 58.6439C229.21 58.6439 227.535 57.9364 226.492 56.7074C225.226 55.3668 224.742 53.2069 224.742 50.3022V36.8959H220.943V33.5071H224.742V28.9639L229.061 27.586Z" fill="white"/>
<path d="M241.984 26.9529C243.697 26.9529 245 28.2563 245 29.8948C245 31.5706 243.697 32.874 241.984 32.874C240.271 32.874 238.93 31.5706 238.93 29.8948C238.93 28.2935 240.271 26.9529 241.984 26.9529ZM241.946 27.5487C240.643 27.5487 239.675 28.6287 239.675 29.8948C239.675 31.1982 240.643 32.2409 241.984 32.2409C243.287 32.2409 244.255 31.1982 244.255 29.8948C244.218 28.6287 243.287 27.5487 241.946 27.5487ZM241.499 31.4589H240.829V28.5169C241.09 28.4797 241.462 28.4052 241.946 28.4052C242.505 28.4052 242.766 28.4797 242.989 28.6287C243.138 28.7404 243.287 29.0011 243.287 29.2617C243.287 29.5969 243.026 29.8576 242.691 29.9693V30.0065C242.989 30.081 243.138 30.3417 243.25 30.7141C243.324 31.161 243.399 31.3472 243.473 31.4216H242.728C242.654 31.3099 242.579 31.0492 242.505 30.7141C242.468 30.3789 242.281 30.23 241.909 30.23H241.574V31.4589H241.499ZM241.499 29.7831H241.835C242.207 29.7831 242.505 29.6714 242.505 29.3362C242.505 29.0755 242.319 28.8893 241.872 28.8893C241.686 28.8893 241.574 28.9266 241.499 28.9266V29.7831Z" fill="white"/>
</svg>
