<?xml version="1.0" encoding="utf-8"?>
<!-- Generator: Adobe Illustrator 27.6.1, SVG Export Plug-In . SVG Version: 6.00 Build 0)  -->
<svg version="1.1" id="Ebene_1" xmlns="http://www.w3.org/2000/svg" xmlns:xlink="http://www.w3.org/1999/xlink" x="0px" y="0px"
	 viewBox="0 0 120 30" style="enable-background:new 0 0 120 30;" xml:space="preserve">
<style type="text/css">
	.st0{fill:#55BBFF;}
	.st1{enable-background:new    ;}
	.st2{fill:none;stroke:#121212;stroke-width:2;stroke-linecap:square;stroke-linejoin:round;}
	.st3{fill:none;stroke:#121212;stroke-width:2;stroke-linejoin:round;}
</style>
<path class="st0" d="M105,30H15C6.7,30,0,23.3,0,15l0,0C0,6.7,6.7,0,15,0h90c8.3,0,15,6.7,15,15l0,0C120,23.3,113.3,30,105,30z"/>
<g class="st1">
	<path d="M24.2,20.4h-2v-3.6c0-0.5,0-1.8,0-2.2c-0.1,0.4-0.4,1.1-0.7,1.6l-2,4.4l-2-4.4c-0.3-0.6-0.5-1.3-0.7-1.6c0,0.4,0,1.6,0,2.2
		v3.6H15v-9.8h1.9l2,4.4c0.3,0.5,0.5,1.3,0.7,1.6c0.1-0.4,0.4-1.1,0.7-1.6l2-4.4h1.9L24.2,20.4L24.2,20.4z"/>
	<path d="M32.4,16.7c0,0.3,0,0.5,0,0.6H28c0.1,1,0.8,1.4,1.5,1.4c0.5,0,1-0.2,1.3-0.5l1.4,1.1c-0.6,0.8-1.7,1.2-2.6,1.2
		c-2.1,0-3.5-1.5-3.5-3.8s1.4-3.8,3.3-3.8S32.4,14.6,32.4,16.7z M30.5,15.9c-0.1-0.7-0.4-1.3-1.3-1.3c-0.7,0-1.1,0.6-1.2,1.3H30.5z"
		/>
	<path d="M40.3,20.4h-1.9v-4c0-1.3-0.4-1.7-1.2-1.7s-1.3,0.4-1.3,1.7v4H34v-9.2l1.9-1v3.3c0.3-0.4,1-0.6,1.7-0.6
		c1.9,0,2.7,1.3,2.7,3.4V20.4z"/>
	<path d="M46.9,13.4l-0.5,1.9c-0.3-0.3-0.7-0.5-1.1-0.5c-0.8,0-1.2,0.3-1.2,1.6v4h-1.9V13h1.9v0.5c0.3-0.4,0.8-0.6,1.5-0.6
		C46.2,12.9,46.7,13.1,46.9,13.4z"/>
	<path d="M54.6,20.4h-2v-9.8h2V20.4z"/>
	<path d="M63.3,20.4h-1.9v-4c0-1.3-0.4-1.7-1.2-1.7s-1.3,0.4-1.3,1.7v4H57V13h1.9v0.5c0.3-0.4,1-0.6,1.7-0.6c1.9,0,2.7,1.3,2.7,3.4
		V20.4z"/>
	<path d="M68.7,12c-0.2-0.1-0.4-0.2-0.7-0.2c-0.6,0-0.7,0.2-0.7,0.6V13h1.2v1.8h-1.2v5.5h-1.9v-5.5h-0.9V13h0.9v-0.9
		c0-1.4,0.8-1.9,2.1-1.9c0.5,0,0.9,0.1,1.2,0.2L68.7,12L68.7,12z"/>
	<path d="M76,16.7c0,2.3-1.4,3.8-3.3,3.8c-1.9,0-3.3-1.6-3.3-3.8s1.4-3.8,3.3-3.8S76,14.4,76,16.7z M74.1,16.7c0-1.1-0.4-2-1.4-2
		c-0.9,0-1.4,0.8-1.4,2s0.4,2,1.4,2C73.6,18.7,74.1,17.7,74.1,16.7z"/>
	<path d="M83.2,18.2c0,1.7-1.3,2.3-3,2.3c-1.2,0-2.3-0.3-3.1-0.9l0.6-1.5c0.8,0.4,1.6,0.7,2.5,0.7c0.8,0,1-0.2,1-0.6
		c0-0.3-0.3-0.5-1.1-0.7c-1.8-0.5-2.9-1-2.9-2.5s1.2-2.2,2.9-2.2c0.9,0,1.9,0.3,2.7,0.7L82.2,15c-0.7-0.4-1.5-0.6-2.1-0.6
		c-0.8,0-1,0.2-1,0.5s0.2,0.4,1.5,0.9C82.1,16.3,83.2,16.7,83.2,18.2z"/>
</g>
<path class="st2" d="M103.4,9.5l6.3,6.3l-6.3,6.3"/>
<path class="st3" d="M93.2,15.7h16.5"/>
</svg>
