<?xml version="1.0" encoding="UTF-8" standalone="no"?>
<!DOCTYPE svg PUBLIC "-//W3C//DTD SVG 1.1//EN" "http://www.w3.org/Graphics/SVG/1.1/DTD/svg11.dtd">
<svg width="100%" height="100%" viewBox="0 0 218 292" version="1.1" xmlns="http://www.w3.org/2000/svg" xmlns:xlink="http://www.w3.org/1999/xlink" xml:space="preserve" xmlns:serif="http://www.serif.com/" style="fill-rule:evenodd;clip-rule:evenodd;stroke-linejoin:round;stroke-miterlimit:2;">
    <g transform="matrix(1,0,0,1,-32.7,-32.7)">
        <path d="M65.4,32.7L218,32.7C236.1,32.7 250.7,47.3 250.7,65.4L250.7,218C250.7,236.1 236.1,250.7 218,250.7L65.4,250.7C47.3,250.7 32.7,236.1 32.7,218L32.7,65.4C32.7,47.4 47.4,32.7 65.4,32.7Z" style="fill:white;fill-rule:nonzero;"/>
    </g>
    <g transform="matrix(1,0,0,1,-32.7,-32.7)">
        <path d="M183.3,170.6C179.6,169.6 176,171.4 174.7,174.1L155.9,211.7C155,213.7 152.7,214.5 150.7,213.6C149.6,213.1 148.8,212 148.5,210.9L139.7,164.5C138.8,159.6 134.1,157.1 131.6,156.4L86,144.1C84.8,143.7 83.8,142.7 83.3,141.5C82.6,139.4 83.8,137.2 85.9,136.5L125.9,121.8C128.8,120.7 130.9,117.2 130.3,113.7L122.8,72.7C122.4,70.8 123.6,68.8 125.5,68.2C127,67.7 128.6,68.2 129.6,69.3L160.7,102.6C162.2,104.2 166.4,106.9 170.4,105.4L209,91.2C182.6,58.9 134.9,50 97.8,72C57.8,95.6 45.3,145.9 69.8,184.4C94.3,222.9 146.5,235 186.4,211.4C199.9,203.4 210.2,192.4 217.1,179.8L183.3,170.6Z" style="fill-rule:nonzero;"/>
    </g>
    <g transform="matrix(1,0,0,1,-32.7,-32.7)">
        <path d="M65.4,258.7L218,258.7C236.1,258.7 250.7,273.3 250.7,291.4C250.7,309.5 236.1,324.1 218,324.1L65.4,324.1C47.3,324.1 32.7,309.5 32.7,291.4C32.7,273.4 47.4,258.7 65.4,258.7Z" style="fill:white;fill-rule:nonzero;"/>
    </g>
    <g transform="matrix(1,0,0,1,-32.7,-32.7)">
        <path d="M213,299.4C213,300.7 214.1,301.8 215.4,301.8C216.7,301.8 217.8,300.7 217.8,299.4L217.8,284.6L219.4,284.6C222.1,284.6 223.3,285.8 223.3,288.4C223.3,289.7 224.4,290.8 225.7,290.8C227,290.8 228.1,289.7 228.1,288.4C228.1,283 224.9,279.9 219.3,279.9L212.8,279.9L213,299.4Z" style="fill-rule:nonzero;"/>
        <path d="M191.8,291.4C191.8,287.2 194.1,284.7 198,284.7L202.6,284.7L202.6,295.3C201.6,296.4 200,297.2 198.2,297.2C194.4,297.2 191.8,294.9 191.8,291.4M198.2,280C191.5,280 186.9,284.6 186.9,291.2C186.9,297.4 191.7,301.9 198.2,301.9C200,301.9 201.7,301.4 203,300.6C203.4,301.5 204.1,302.2 205.1,302.2C206.4,302.2 207.5,301.1 207.5,299.8L207.5,280L198.2,280Z" style="fill-rule:nonzero;"/>
        <path d="M171.6,275.3L171.6,294.6C171.6,299.1 174.2,301.9 178.3,301.9L183.4,301.9C184.7,301.9 185.8,300.8 185.8,299.5C185.8,298.2 184.7,297.1 183.4,297.1L178.8,297.1C177,297.1 176.5,296.6 176.5,295L176.5,284.6L183.4,284.6C184.7,284.6 185.8,283.5 185.8,282.2C185.8,280.9 184.7,279.8 183.4,279.8L176.5,279.8L176.5,275.1C176.5,273.7 175.4,272.7 174.1,272.7C172.7,272.8 171.6,273.9 171.6,275.3" style="fill-rule:nonzero;"/>
        <path d="M149.1,286.5C149.1,290.2 152.1,293.2 155.8,293.2C155.7,293.2 156.8,293.2 160.8,293.2C162,293.2 162.9,294.1 162.9,295.3C162.9,296.6 161.8,297.1 160.8,297.1L152.6,297.1C151.3,297.1 150.2,298.2 150.2,299.5C150.2,300.8 151.3,301.9 152.6,301.9L160.8,301.9C164.6,301.9 167.6,299 167.6,295.4C167.6,291.6 164.6,288.6 160.8,288.6C160.9,288.6 159.8,288.6 155.8,288.6C154.7,288.6 153.8,287.7 153.8,286.6C153.8,285.5 154.6,284.8 155.8,284.8L164.1,284.8C165.4,284.8 166.5,283.7 166.5,282.4C166.5,281.1 165.4,280 164.1,280L155.8,280C152.1,279.9 149.1,282.8 149.1,286.5" style="fill-rule:nonzero;"/>
        <path d="M129,291.4C129,287.2 131.3,284.7 135.3,284.7L139.9,284.7L139.9,295.7C138.8,296.6 137.3,297.2 135.5,297.2C131.6,297.2 129,294.9 129,291.4M135.5,280C128.8,280 124.2,284.6 124.2,291.2C124.2,297.4 128.9,301.9 135.5,301.9C137.1,301.9 138.6,301.6 139.9,301.1C139.9,306.5 135.2,307.1 133.2,307.1C131.3,307.1 129.4,306.6 127.6,306.1L127.3,306C126.7,305.8 126.1,305.9 125.5,306.2C125,306.5 124.6,307 124.4,307.6C124.2,308.2 124.3,308.8 124.6,309.4C124.9,309.9 125.4,310.3 126,310.5L126.3,310.6C128.8,311.4 131.1,311.8 133.3,311.8C140.4,311.8 144.7,307.2 144.7,299.7L144.7,280L135.5,280Z" style="fill-rule:nonzero;"/>
        <path d="M101.2,299.4C101.2,300.7 102.3,301.8 103.6,301.8C104.9,301.8 106,300.7 106,299.4L106,284.6L110.6,284.6C113.2,284.6 115.2,286.8 115.2,289.5L115.2,299.3C115.2,300.6 116.3,301.7 117.6,301.7C118.9,301.7 120,300.6 120,299.3L120,289.5C120,283.9 116,279.8 110.6,279.8L101.2,279.8L101.2,299.4Z" style="fill-rule:nonzero;"/>
        <path d="M85.8,297.6C82.1,297.6 79.5,294.9 79.5,290.9C79.5,286.9 82.1,284.2 85.8,284.2C89.5,284.2 92.1,286.9 92.1,290.9C92.1,294.9 89.5,297.6 85.8,297.6M85.8,279.5C79.4,279.5 74.5,284.5 74.5,290.9C74.5,297.3 79.5,302.3 85.8,302.3C92.1,302.3 97.1,297.3 97.1,290.9C97.1,284.5 92.2,279.5 85.8,279.5" style="fill-rule:nonzero;"/>
        <path d="M67.4,280C62,280 56.4,284.1 56.4,291C56.4,297.9 62,302 67.4,302L70.3,302C71.6,302 72.7,300.9 72.7,299.6C72.7,298.3 71.6,297.2 70.3,297.2L68,297.2C64.7,297.2 61.4,295.1 61.4,291C61.4,286.9 64.7,284.8 68,284.8L70.3,284.8C71.6,284.8 72.7,283.7 72.7,282.4C72.7,281.1 71.6,280 70.3,280L67.4,280Z" style="fill-rule:nonzero;"/>
    </g>
</svg>
